<?xml version="1.0" encoding="utf-8"?>
<!-- Generator: Adobe Illustrator 17.0.1, SVG Export Plug-In . SVG Version: 6.00 Build 0)  -->
<!DOCTYPE svg PUBLIC "-//W3C//DTD SVG 1.1//EN" "http://www.w3.org/Graphics/SVG/1.1/DTD/svg11.dtd">
<svg version="1.1" xmlns="http://www.w3.org/2000/svg" xmlns:xlink="http://www.w3.org/1999/xlink" x="0px" y="0px" width="1000px"
	 height="1000px" viewBox="0 0 1000 1000" enable-background="new 0 0 1000 1000" xml:space="preserve">
<g id="Layer_1" display="none">
	<g display="inline">
		<path fill="#353535" d="M501.37,430.197c9.818-16.102,16.03-33.445,20.369-51.419c9.702-40.194,15.847-80.938,19.479-122.157
			c3.03-34.386,4.981-68.783,4.728-103.271c-0.162-22.137-1.4-44.268-2.228-66.399c-0.213-5.696,1.448-7.581,7.129-7.522
			c9.706,0.099,12.277,2.103,12.851,10.642c3.086,45.861,6.523,91.704,8.995,137.598c1.782,33.087,1.569,66.285,3.5,99.36
			c1.715,29.379,4.793,58.697,8.007,87.961c1.371,12.483,7.551,22.978,18.131,30.439c9.726,6.858,20.547,6.407,31.698,5.443
			c7.309-0.632,27.194-1.472,29.938-1.881c10.356-1.544,20.748-2.851,31.111-4.348c6.754-0.976,13.569-1.747,20.205-3.269
			c19.393-4.448,38.759-9.035,58.049-13.914c52.08-13.171,103.769-27.716,154.725-44.786c1.884-0.631,3.828-1.185,5.789-1.469
			c4.126-0.597,6.624,1.312,7.726,5.317c2.431,8.84,0.356,11.517-8.249,14.591c-13.302,4.752-26.311,10.337-39.374,15.738
			c-55.657,23.008-111.543,45.488-166.806,69.41c-22.679,9.817-44.12,22.557-65.842,34.48c-6.036,3.313-11.41,8.094-16.48,12.849
			c-11.091,10.402-14.771,23.489-10.209,37.855c3.401,10.709,7.554,21.477,13.254,31.105c20.691,34.949,42.08,69.488,63.382,104.072
			c30.738,49.903,61.646,99.701,92.436,149.572c3.926,6.359,0.347,14.102-7.069,15.757c-3.759,0.839-5.337-1.801-7.079-4.301
			c-12.186-17.49-24.006-35.25-36.67-52.387c-33.879-45.845-69.254-90.506-109.262-131.231
			c-20.319-20.683-41.833-40.131-65.489-57.042c-1.444-1.033-11.781-9.409-23.198-10.076c-11.417-0.667-24.89,3.661-34.586,12.082
			c-20.064,17.427-35.415,39.121-51.468,60.131c-47.841,62.615-95.787,125.151-143.741,187.679
			c-2.317,3.022-4.749,6.189-7.797,8.337c-2.154,1.518-5.701,2.474-8.178,1.864c-8.496-2.094-10.323-7.725-5.075-14.921
			c28.089-38.521,54.096-78.414,78.48-119.359c23.185-38.931,44.939-78.662,61.749-120.812
			c6.574-16.485,12.037-33.553,16.329-50.773c5.402-21.676-2.224-40.879-18.239-55.053c-12.271-10.861-26.928-19.409-41.447-27.283
			c-62.193-33.729-126.975-61.793-193.354-86.178c-18.731-6.881-37.71-13.086-56.573-19.608c-8.075-2.792-10.021-6.205-7.624-13.305
			c2.185-6.472,5.226-8.119,11.815-6.197c18.201,5.308,36.434,10.513,54.569,16.04c66.355,20.223,133.185,38.64,200.986,53.413
			c1.131,0.246,2.269,0.458,3.798,0.765c0.851-1.935,1.899-3.819,2.523-5.835c1.68-5.426,0.448-7.444-5.116-8.921
			c-32.782-8.703-65.559-17.425-98.351-26.086c-2.051-0.542-14.796-5.617-17.994-6.495c-6.41-1.758-12.827-3.495-19.242-5.236
			c-25.962-7.045-51.94-14.027-77.878-21.159c-12.989-3.572-25.909-7.394-38.848-11.146c-5.87-1.702-7.436-4.193-5.386-8.866
			c5.742-13.093,11.129-26.37,17.488-39.161c38.352-77.147,93.035-139.26,168.892-181.467c42.361-23.57,87.963-37.703,135.876-44.34
			c15.814-2.191,31.785-3.242,47.671-4.937c4.74-0.506,6.403,2.125,6.615,6.086c0.267,4.987,0.156,9.994,0.211,14.992
			c0.379,34.479,0.7,68.916-2.702,103.344c-2.897,29.316-3.605,58.846-6.426,88.172c-3.808,39.586-7.583,79.381-21.525,116.987
			C497.37,417.752,500.827,423.42,501.37,430.197z M419.678,403.708c6.197,0.417,21.924-3.033,30.271-11.106
			c7.138-6.903,11.734-15.587,13.817-25.047c5.181-23.536,10.666-47.091,14.028-70.92c4.626-32.784,7.467-65.821,10.942-98.764
			c0.997-9.448,1.505-18.937-1.577-28.197c-1.914-5.75-4.683-7.941-10.636-7.695c-4.483,0.185-8.954,0.762-13.419,1.272
			c-49.608,5.668-93.564,25.455-134.85,52.737c-36.166,23.899-65.124,54.815-90.517,89.374c-7.648,10.409-13.97,21.815-20.58,32.954
			c-3.414,5.753-1.562,9.603,4.909,11.455c15.335,4.389,30.678,8.754,46.04,13.044c32.345,9.034,64.668,18.148,97.073,26.962
			C383.27,394.698,413.481,403.291,419.678,403.708z M599.183,519.617c-0.018-36.194-35.273-62.889-69.37-52.528
			c-29.821,9.062-45.45,42.713-33.965,73.131c9.963,26.388,35.758,40.802,62.089,34.695
			C581.905,569.356,599.196,546.174,599.183,519.617z M489.825,604.997c0.051-10.259-10.352-17.616-18.367-13.34
			c-3.926,2.095-8.326,10.966-7.675,15.474c0.639,4.429,6.624,10.1,11.869,10.875c3.226,0.477,5.776,0.146,5.53-4.535
			C480.769,605.626,481.538,605.119,489.825,604.997z M453.808,488.457c-1.799-7.641-10.534-13.609-17.719-11.359
			c-4.232,1.325-8.383,3.078-9.653,8.832c-1.917,8.686,3.352,12.205,9.273,15.915c4.891,3.064,7.163,2.248,8.302-3.355
			C445.739,489.99,445.739,489.99,453.808,488.457z M532.783,405.512c-5.824,0.68-11.52,3.885-12.495,7.51
			c-2,7.44,4.806,18.422,12.417,20.303c3.032,0.749,4.826-0.067,4.268-3.231c-0.803-4.55,1.16-7.413,4.396-10.259
			c3.965-3.486,3.741-7.844-0.559-10.909C538.499,407.278,535.482,406.618,532.783,405.512z M604.879,602.902
			c-2.109-3.781-3.362-6.959-5.445-9.44c-1.446-1.722-3.936-3.23-6.133-3.521c-4.531-0.6-12.239,5.955-13.574,10.839
			c-1.643,6.011,0.849,11.531,6.586,14.584c5.67,3.018,8.294,2.108,9.93-3.958C597.398,607.125,598.936,603.522,604.879,602.902z
			 M627.32,476.575c-10.413,1.312-14.385,4.199-12.451,13.591c0.591,2.871,2.742,5.426,3.299,8.297
			c0.66,3.401,2.452,5.565,5.513,4.816c2.291-0.561,4.463-2.786,6.046-4.78c2.413-3.039,4.541-6.386,6.25-9.868
			c0.847-1.726,1.42-5.087,0.506-5.903C633.395,479.971,629.586,478.023,627.32,476.575z"/>
		<path fill="#353535" d="M819.153,851.624c-2.731-3.846-5.582-7.323-7.855-11.144c-18.883-31.753-37.606-63.602-56.511-95.343
			c-4.165-6.992-8.97-13.599-13.295-20.5c-25.799-41.156-51.706-82.245-77.172-123.606c-5.27-8.559-10.238-17.786-12.863-27.384
			c-4.595-16.799-0.886-28.054,12.445-36.519c10.664-6.771,21.457-13.593,32.91-18.823c41.902-19.135,84.043-37.754,126.213-56.295
			c31.667-13.923,63.464-27.557,95.334-41.009c6.376-2.691,13.26-4.376,20.06-5.815c7.811-1.653,10.9,0.288,12.489,8.236
			c2.738,13.695,5.381,27.45,7.114,41.299c4.519,36.126,5.512,72.412,1.778,108.648c-7.082,68.724-26.761,133.139-65.528,191.167
			c-20.843,31.199-44.02,60.19-72.384,84.868C821.157,850.04,820.385,850.627,819.153,851.624z M752.692,702.332
			c32.25-63.377,44.284-129.237,40.315-198.642c-1.147,0.144-1.977,0.12-2.721,0.361c-32.37,10.458-63.773,23.151-92.874,40.978
			c-9.679,5.929-15.707,14.696-17.774,25.979c-2.348,12.819,0.952,24.471,7.857,35.164c17.418,26.971,34.899,53.902,52.582,80.699
			C743.521,692.089,747.994,696.63,752.692,702.332z"/>
		<path fill="#353535" d="M590.799,297.427c-0.287-13.95,0.402-27.923-0.049-41.864c-0.3-9.288-2.128-18.516-2.77-27.806
			c-1.136-16.442-1.566-32.937-2.889-49.361c-1.536-19.077-3.589-38.116-5.665-57.144c-1.027-9.416-2.421-18.804-3.995-28.146
			c-1.652-9.81,0.398-11.98,10.432-10.808c24.821,2.9,131.256,34.837,188.445,73.02s85.478,75.276,103.066,100.384
			c21.316,30.43,38.283,63.155,52.393,97.425c3.789,9.204,2.019,13.575-6.835,16.115c-31.953,9.166-63.942,18.21-95.984,27.057
			c-21.473,5.929-42.99,11.734-64.615,17.075c-24.21,5.979-48.427,12.093-72.903,16.784c-18.921,3.627-38.217,5.41-57.4,7.526
			c-15.03,1.658-26.765-8.334-32.802-24.883c-3.97-10.883-4.792-23.045-6.075-34.739c-1.232-11.229-1.243-22.593-1.79-33.897
			C591.783,344.147,591.12,312.994,590.799,297.427z M606.465,203.141c0,3.09-0.051,4.892,0.008,6.691
			c0.532,16.127,1.261,32.25,1.591,48.381c0.589,28.809,0.853,57.625,1.45,86.433c0.162,7.808,0.599,15.659,1.647,23.39
			c3.441,25.392,20.429,40.848,46.499,35.766c33.936-6.615,67.597-14.64,101.381-22.04c2.463-0.539,3.534-1.949,2.552-4.294
			c-2.621-6.261-5.099-12.608-8.151-18.659c-32.206-63.846-78.79-114.678-139.047-153.038
			C612.364,204.478,609.699,204.18,606.465,203.141z M607.499,178.777c-1.505,9.351-1.496,9.332,5.628,12.694
			c13.198,6.228,26.377,12.499,39.585,18.707c2.093,0.984,4.382,2.555,6.428,2.349c1.995-0.201,4.117-2.076,5.481-3.778
			c0.396-0.494-1.245-3.608-2.595-4.349c-7.553-4.145-15.197-8.159-23.012-11.782C628.686,187.828,618.171,183.44,607.499,178.777z"
			/>
		<path fill="#353535" d="M544.908,964.312c-55.575-1.082-108.715-13.527-159.475-36.025c-15.938-7.064-31.172-15.714-46.717-23.661
			c-1.33-0.68-2.587-1.508-3.854-2.307c-8.078-5.098-8.354-7.546-2.169-14.739c12.047-14.009,24.439-27.754,35.881-42.246
			c39.321-49.799,79.148-99.239,114.756-151.831c14.086-19.919,28.66-35.878,45.336-52.836c9.256-9.411,23.638-11.728,35.813-4.476
			c10.516,6.263,20.275,13.96,29.754,21.769c21.007,17.305,39.638,37.021,57.232,57.772c22.601,26.655,46.197,52.501,68.012,79.778
			c19.112,23.897,36.356,49.288,54.418,74.025c0.588,0.806,0.999,1.753,1.645,2.503c8.694,10.093,4.924,11.854-2.824,18.321
			c-2.17,1.811-4.373,3.653-6.794,5.085c-41.467,24.526-83.769,47.19-131.353,57.802
			C605.076,959.821,575.207,963.395,544.908,964.312z M676.262,805.552c-4.095-4.865-7.973-9.784-12.173-14.413
			c-25.165-27.731-49.981-55.799-75.834-82.876c-9.777-10.24-21.347-19.167-33.294-26.829c-13.197-8.464-25.426-6.45-37.052,4.026
			c-5.025,4.528-9.525,9.796-13.547,15.256c-31.496,42.758-62.797,85.66-94.209,128.48c-7.366,10.042-14.93,19.939-22.632,30.209
			c1.659,0.785,2.937,1.465,4.27,2.011c38.058,15.585,77.513,24.88,118.72,26.032c6.958,0.195,42.303-7.009,52.719-10.905
			C605.275,860.817,641.653,835.906,676.262,805.552z"/>
		<path fill="#353535" d="M297.579,146.963c-9.212,7.838-18.411,15.692-27.639,23.512c-80.726,68.407-130.352,155.148-150.06,258.66
			C102.471,520.573,109.281,610.757,144.333,697c11.348,27.922,27.423,54.225,44.462,79.142
			c38.884,56.864,87.647,103.472,147.462,138.139c3.169,1.836,6.276,3.778,9.42,5.657c2.332,1.393,4.851,2.755,3.475,6.139
			c-1.476,3.629-4.445,2.398-6.818,1.53c-21.224-7.76-42.806-14.716-63.511-23.69c-46.293-20.064-87.458-47.979-123.013-83.966
			c-39.713-40.195-68.445-87.357-88.732-139.847c-13.002-33.641-22.506-68.226-26.786-104.112
			c-4.847-40.651-3.423-81.129,4.161-121.355c2.248-11.921,4.35-23.937,7.69-35.574c19.144-66.699,49.89-126.959,98.448-177.475
			c39.351-40.938,84.932-72.554,137.334-94.339c2.782-1.157,5.982-1.31,8.988-1.93C297.136,145.867,297.357,146.415,297.579,146.963
			z"/>
		<path fill="#353535" d="M449.348,573.812c-2.66,8.497-5.966,20.318-10.05,31.862c-11.414,32.261-26.274,63.004-43.606,92.418
			c-27.037,45.885-54.799,91.347-82.563,136.798c-6.061,9.922-13.318,19.127-20.226,28.513c-4.707,6.396-11.091,0.253-11.091,0.253
			s-8.344-5.781-13.781-10.438s-68.319-72.014-92.935-115.663c-23.387-41.471-41.232-84.883-47.819-132.464
			c-4.696-33.927-6.582-67.929-4.628-102.124c0.551-9.638,1.1-19.295,2.212-28.878c1.503-12.95,3.438-25.854,5.408-38.744
			c0.923-6.035,2.381-11.987,3.563-17.983c1.889-9.578,4.849-11.68,14.241-8.726c12.679,3.988,25.249,8.353,37.746,12.886
			c48.789,17.693,96.412,38.237,143.97,58.954c32.059,13.965,64.014,28.058,93.012,47.926c2.884,1.976,5.637,4.146,8.557,6.064
			C443.711,542.578,447.933,556.686,449.348,573.812z M170.37,528.766c0.326,0.019,0.653,0.038,0.979,0.056
			c0.61,11.805,0.061,23.812,2.081,35.371c3.716,21.265,7.898,42.56,13.742,63.319c15.4,54.698,42.597,103.122,80.599,145.407
			c2.982,3.318,6.261,6.523,9.901,9.064c7.145,4.988,13.993,4.599,19.549-1.892c8.413-9.829,17.307-19.573,23.838-30.628
			c24.734-41.869,47.141-85.008,65.581-130.055c3.98-9.723,7.067-20.292,7.968-30.696c1.866-21.539-9.144-37.17-27.24-47.403
			c-18.372-10.389-37.219-20.005-56.247-29.15c-21.504-10.335-43.609-19.415-65.137-29.702
			c-17.659-8.438-35.791-15.043-55.142-18.081c-9.044-1.42-13.746,1.542-16.653,10.24c-0.628,1.878-1.146,3.868-1.258,5.832
			C172.017,496.551,171.21,512.66,170.37,528.766z"/>
	</g>
</g>
<g id="Layer_2" display="none">
	<g display="inline">
		<path fill="#353535" d="M395.539,783.411c-5.66-13.294-11.412-26.805-17.336-40.719c-9.019-0.378-17.141,17.546-25.915,3.94
			c-7.332-11.371,7.335-16.859,18.992-22.856c-4.583-15.254-9.358-31.146-13.387-44.555c-10.425,0.648-19.332,1.443-28.226,1.352
			c-0.822-0.008-3.459-7.236-2.015-8.421c7.011-5.753,15.127-10.589,25.462-17.495c-2.555-13.337-5.981-31.219-9.389-49.009
			c-10.852-2.91-29.198,11.178-30.108-7.707c-0.618-12.834,16.084-10.206,27.254-13.492c-0.962-15.159-1.42-31.55-3.622-47.78
			c-0.357-2.629-9.245-7.07-12.829-6.308c-10.425,2.216-19.552,1.586-20.528-7.743c-0.933-8.917,8.275-12.169,18.65-11.62
			c4.129,0.218,8.266,0.345,13.062,0.541c0-14.978,0-30.096,0-45.139c-7.432-0.829-14.758-0.665-21.061-2.681
			c-4.469-1.43-7.555-5.805-11.258-8.865c4.436-3.069,10.042-9.428,13.121-8.681c22.228,5.392,22.675-6.706,23.88-18.699
			c0.48-4.776,2.265-9.85,0.906-14.25c-1.251-4.047-4.971-9.041-9.264-10.717c-15.648-6.108-16.986-10.791-4.279-21.581
			c4.954,1.13,9.906,2.265,15.306,3.503c2.46-14.208,5.374-27.796,6.753-41.489c0.31-3.074-4.395-6.762-7.415-9.735
			c-4.982-4.904-10.472-9.455-15.748-14.155c0.745-1.563,1.49-3.127,2.234-4.69c7.414-0.849,14.827-1.699,25.761-2.952
			c1.886-4.95,6.971-13.648,7.868-22.631c0.439-4.4-7.8-9.013-10.444-14.118c-2.246-4.336-2.099-9.517-3.01-14.324
			c4.592-0.241,9.293-1.071,13.735-0.506c2.781,0.353,5.171,2.805,8.997,5.057c6.87-12.951,13.468-25.389,19.966-37.638
			c-5.376-8.677-22.199-14.455-10.974-26.478c2.362-2.531,12.891,0.137,24.264,0.595c5.702-8.805,14.175-21.887,21.359-32.979
			c-8.453-7.282-15.6-13.44-23.888-20.58c-21.355,2.825-13.183,19.827-18.092,32.142c-3.863,0.653-8.304,1.404-13.201,2.232
			c-1.13,7.349-2.079,14.205-3.29,21.03c-0.448,2.525-0.952,6.885-2.381,7.171c-17.211,3.444-9.773,14.834-11.639,23.229
			c-0.71,3.194-1.626,8.531-3.714,8.993c-14.471,3.206-12.275,12.343-11.733,20.746c0.443,6.866-2.013,11.317-8.169,16.742
			c-4.757,4.192-2.449,13.663-3.853,20.709c-0.827,4.149-1.258,10.273-4.478,11.832c-12.093,5.856-9.141,14.114-8.412,22.779
			c0.384,4.566-0.179,11.097-3.645,13.61c-9.845,7.139-9.824,14.562-4.887,23.139c4.478,7.78,4.55,13.989-4.623,20.32
			c-3.65,2.52-5.077,9.855-3.712,14.179c3.065,9.705,4.88,17.766-4.333,26.624c-3.443,3.311-0.951,11.788,0.713,17.539
			c2.559,8.843,8.273,17.175-4.427,24.516c-2.112,1.221-1.28,9.303,1.402,12.161c8.559,9.12,7.713,16.698-0.124,25.879
			c-2.712,3.177-2.24,11.282,0.846,14.114c6.343,5.823,7.124,10.513,3.757,17.497c-4.778,9.909-10.398,20.204,3.199,29.432
			c2.467,1.674,2.958,7.9,1.252,10.76c-7.719,12.942-6.374,23.313,10.535,29.995c-2.646,7.615-5.416,14.165-7.034,20.904
			c-0.708,2.948-0.461,7.616,1.763,9.213c10.43,7.487,12.096,16.098,8.961,26.718c-1.033,3.5,0.567,9.694,3.65,11.463
			c10.338,5.932,12.16,12.949,9.023,22.346c-2.274,6.812-1.876,12.674,7.029,17.843c4.281,2.485,4.938,10.484,5.252,16.062
			c0.423,7.515-0.505,14.169,10.61,17.961c3.388,1.156,4.342,8.554,5.117,13.239c1.198,7.237-3.43,16.268,10.92,18.537
			c1.775,0.281,3.039,5.158,3.548,8.025c1.143,6.441,1.662,12.957,2.475,19.782c4.656,1.071,9.148,2.105,13.898,3.198
			c1.183,6.108,2.963,12.067,3.338,18.087c0.431,6.916,3.459,11.031,11.881,13.255c3.57,0.943,7.681,4.749,8.474,7.798
			c2.327,8.953,2.994,17.065,17.58,19.802c4.55,0.854,6.332,11.761,9.381,18.067c1.093-0.684,2.186-1.368,3.279-2.052
			c5.117,5.116,10.052,10.368,15.414,15.303c3.774,3.474,8.032,6.608,12.294,9.687c1.059,0.765,3.673,0.308,4.382,1.12
			c7.746,8.881,20.177,13.421,29.106,19.974c24.191,17.753,53.952,23.084,81.664,33.005c8.069,2.889,17.046,4.05,25.631,7.988
			c-4.581,0.227-9.736,1.707-13.65,0.482c-30.677-9.603-65.985-7.312-93.547-24.796c-20.517,3.285-24.268-20.261-44.06-18.938
			c-2.114,0.141-4.273-5.758-7.304-8.048c-4.241-3.204-9.289-5.69-14.076-8.38c-0.792-0.445-2.474-0.063-2.97-0.574
			c-10.014-10.337-19.829-20.807-29.88-31.119c-4.24-4.35-8.884-8.436-13.471-12.545c-0.612-0.549-2.875-0.548-2.867-0.761
			c0.727-18.598-27.044-24.413-27.791-42.297c-0.281-6.719-0.588-13.235-11.482-14.616c-1.807-0.229-3.843-3.618-4.328-5.769
			c-1.638-7.26-2.625-14.621-4.027-22.925c-4.142-1.403-8.839-2.994-12.987-4.4c-5.984-11.172,9.575-28.325-15.615-32.525
			c0.438-7.181,1.37-13.702,0.992-20.17c-0.176-3.011-1.988-7.63-4.619-8.582c-11.972-4.334-12.556-11.396-9.683-20.341
			c2.396-7.457,1.276-13.645-6.445-19.977c-4.145-3.399-2.346-11.646-3.48-17.672c-1.041-5.527-0.143-13.009-4.122-16.099
			c-8.399-6.525-9.335-12.696-5.234-20.568c4.142-7.95,4.031-15.1-5.335-20.723c-11.145-6.692-3.23-14.696-0.741-21.313
			c3.044-8.093,3.249-14.302-5.601-19.331c-9.429-5.358-4.223-11.986-1.397-17.469c4.729-9.177,4.532-16.423-3.322-24.893
			c-3.399-3.666-2.666-12.749,0.574-17.193c5.759-7.899,5.803-13.411,0.167-21.443c-3.258-4.643-3.29-13.767,0.237-18.081
			c6.475-7.921,7.666-14.5,2.526-22.669c-5.304-8.43-5.554-15.825,4.686-22.884c3.145-2.168,3.369-9.419,1.85-13.575
			c-3.797-10.386-6.76-19.383,5.657-27.995c3.189-2.212,2.108-10.525,0.283-15.336c-3.097-8.167-3.227-14.181,5.366-20.6
			c3.944-2.946,5.673-10.145,4.683-14.885c-1.883-9.02-3.223-16.265,6.756-23.461c3.907-2.818,3.777-11.155,2.685-16.596
			c-1.607-8.008-2.158-13.949,8.146-18.726c3.781-1.753,5.259-8.276,5.994-12.82c1.274-7.875-4.653-17.684,10.594-21.06
			c1.838-0.407,3.016-5.092,3.213-7.856c0.463-6.506,0.149-13.05,0.149-20.118c18.839-1.242,14.284-14.158,18.037-23.218
			c1.695-4.092,5.724-7.508,8.547-11.305c2.494-3.354,6.048-6.607,6.919-10.264c2.293-9.626,1.735-20.259,17.18-23.102
			c0.994-0.183,2.732-0.876,2.685-1.184c-2.567-16.985,19.201-21.806,25.479-34.826c6.615-13.717,17.651-25.932,36.425-30.853
			c0.493-0.129,1.442-0.082,1.483-0.239c4.198-16.33,24.96-16.715,36.636-25.857c5.052-3.955,11.269-6.882,16.84-10.401
			c28.984-18.31,65.542-15.005,98.024-23.337c3.813-0.978,8.311-0.133,16.952-0.133c-8.994,2.964-14.105,4.648-22.342,7.363
			c5.476,1.971,8.867,4.425,11.491,3.956c82.41-14.744,141.499,17.386,191.941,65.611c70.644,67.54,103.407,149.358,125.619,234.538
			c18.431,70.681,22.698,142.636,18.795,214.638c-5.371,99.085-28.866,195.149-82.302,284.769
			c-28.694,48.123-64.089,93.213-121.704,121.058c-25.88,12.508-55.966,19.845-85.144,26.566
			c-12.02,2.769-26.681-3.513-40.128-3.461c-23.019,0.09-39.667-11.372-58.384-19.279c-6.897-2.913-12.148-10.319-22.284-5.26
			c-1.237,0.617-6.477-2.551-8.382-4.814c-9.642-11.455-18.795-23.19-25.868-32.017c-10.465,1.54-18.83,4.898-22.755,2.743
			c-3.833-2.105-2.971-9.87-4.463-15.093c-1.783-6.244-2.863-12.822-6.121-18.525c-3.278-5.741-8.855-10.587-12.525-14.794
			c-7.393,1.893-13.804,3.535-21.657,5.547c-1.305-5.001-4.242-9.506-2.67-11.271c16.046-18.011-2.748-31.223-8.676-46.124
			c-1.254-3.152-3.523-6.029-5.942-5.216c-7.323,0.662-18.764,4.078-21.273,1.52C371.641,797.989,389.966,792.373,395.539,783.411z
			 M515.263,46.8c-10.996,4.991-14.526,19.244-31.359,17.249c-0.926-0.11-2.055,2.882-3.582,3.948
			c-5.993,4.181-12.851,7.666-18.076,12.398c-3.736,3.384-5.381,8.343-7.959,12.599c-11.426,5.579-21.421,11.589-24.894,23.588
			c-1.409,4.868-8.968,8.523-13.728,12.73c-1.345-0.859-2.689-1.717-4.034-2.576c-0.749,3.668-1.498,7.335-2.247,11.003
			c1.181-0.785,2.362-1.571,3.543-2.356c7.843,4.912,15.686,9.824,23.952,15.001c6.745-15.492,30.937-28.071,15.783-49.987
			c-1.175-1.699,0.886-4.924,1.409-7.465c12.85-10.592,15.557,1.99,22.463,7.907c13.572-18.408,42.702-27.916,38.427-54.238
			c6.587,1.899,13.174,3.798,21.549,6.212c7.94-8.845,29.428-8.233,37.185-21.351c-0.867-0.946-1.734-1.892-2.601-2.838
			C552.483,34.682,533.873,40.741,515.263,46.8z M917.386,497.302c-1.494-20.451-2.654-40.923-4.542-61.348
			c-6.462-69.895-24.686-137.387-62.605-200.534c-27.186-45.275-62.492-84.971-119.221-107.912
			c-34.537-13.967-71.106-14.366-105.543-1.496c-59.679,22.305-97.517,63.447-123.738,110.926
			c-31.321,56.715-49.461,116.52-57.001,179.186c-6.768,56.246-10.842,111.884-2.063,168.085
			c9.551,61.147,26.228,120.551,60.516,175.712c25.009,40.234,55.325,76.725,104.245,100.69
			c60.89,29.829,119.832,16.958,168.158-17.815c39.673-28.547,66.14-65.159,86.476-104.865
			C901.456,661.027,916.12,580.284,917.386,497.302z"/>
		<path fill="#353535" d="M448.68,32.142c5.83-1.915,11.87-3.487,17.455-5.804c25.545-10.6,65.752-13.992,98.764-11.52
			c-21.072,3.205-40.628,3.581-57.423,9.395c-20.693,7.163-45.817,8.564-60.125,26.343c-2.003,2.489-7.36,3.036-10.95,4.782
			c-4.897,2.38-10.338,4.439-14.227,7.707c-11.445,9.617-22.759,19.408-33.113,29.817c-7.518,7.558-13.465,16.186-20.014,24.39
			c-0.832,1.043-0.642,2.795-1.655,3.562c-9.591,7.263-19.666,14.113-28.866,21.691c-3.247,2.675-4.84,6.911-6.536,10.638
			c-3.564,7.834,2.283,19.906-15.425,21.588c-1.86,0.177-3.016,9.174-3.558,14.149c-0.788,7.236,1.439,15.129-12.156,16.583
			c-2.248,0.24-4.377,7.814-4.741,12.104c-0.718,8.456,2.121,17.388-11.815,21.42c-2.527,0.731-3.034,8.281-2.978,12.67
			c0.202,15.796,0.444,15.794-14.58,23.377c0.573,5.252,0.366,10.935,1.972,16.244c2.249,7.433,0.29,12.471-8.152,16.112
			c-10.69,4.61-3.438,12.141-3.928,18.473c-0.395,5.102,0.173,11.554-3.259,14.933c-7.698,7.579-9.941,14.752-5.127,23.744
			c4.213,7.868,3.629,15.021-6.047,20.148c-10.123,5.363-3.534,12.102-0.897,17.321c4.411,8.73,4.578,15.816-5.154,21.676
			c-9.823,5.915-3.525,12.923-1.065,18.767c3.986,9.468,7.792,17.676-4.125,25.626c-2.404,1.603-1.181,8.664,0.628,12.479
			c4.569,9.635,10.12,18.62-1.193,27.946c-2.101,1.732-2.612,7.124-0.931,9.251c9.871,12.493,5.488,24.617,1.018,37.311
			c-1.427,4.052-0.518,10.687,2.705,13.436c8.1,6.909,10.113,13.315,4.63,21.861c-5.18,8.072-4.005,14.686,4.984,21.695
			c3.828,2.985,3.365,11.77,1.556,17.165c-2.8,8.348-2.715,15.098,5.306,21.16c1.926,1.455,5.224,4.141,4.732,4.948
			c-13.478,22.117,24.942,39.061,6.642,61.838c18.196,3.509,19.816,13.16,17.143,24.882c-1.411,6.186-0.13,10.99,7.991,15.058
			c4.366,2.187,5.665,9.793,6.558,15.157c1.176,7.071-1.906,14.916,11.349,17.125c2.727,0.454,4.549,7.672,5.425,11.962
			c1.554,7.608-2.309,16.489,12.711,19.171c3.481,0.622,3.6,11.562,6.609,17.271c2.605,4.943,7.022,9.255,10.816,13.743
			c2.717,3.215,7.039,5.93,8.341,9.449c2.883,7.796,3.227,16.507,16.716,17.429c1.646,0.112,3.802,3.046,4.338,4.94
			c2.254,7.958,2.484,17.065,17.06,16.107c0.739-0.049,2.106,0.884,2.3,1.538c3.58,12.092,15.995,16.923,26.225,24.42
			c17.438,12.778,33.966,25.314,56.911,31.134c12.42,3.15,23.739,9.217,36.121,12.525c20.51,5.48,41.477,9.794,63.434,14.873
			c-32.038,7.229-58.924-6.364-87.336-10.809c-20.029-3.133-38.982-11.026-58.32-17.002c-2.245-0.694-4.047-2.602-5.761-4.167
			c-2.122-1.936-3.494-4.606-5.96-6.081c-13.195-7.892-26.654-15.482-39.955-23.253c-2.012-1.175-4.644-2.489-5.336-4.196
			c-3.451-8.512-6.92-16.552-20.509-16.73c-1.391-0.018-3.155-3.032-4.005-4.887c-3.765-8.219-4.022-18.262-18.394-20.418
			c-1.884-0.283-2.307-6.15-3.855-9.279c-1.91-3.863-3.49-10.263-6.6-10.893c-16.855-3.411-13.786-15.449-17.897-24.6
			c-2.263-5.038-6.984-9.323-10.597-13.947c-1.545,0.639-3.089,1.278-4.634,1.917c-1.015-6.877-1.917-13.767-3.105-20.624
			c-0.434-2.503-1.049-6.849-2.427-7.093c-16.726-2.955-11.438-14.369-13.502-22.921c-0.709-2.938-0.588-7.983-2.329-8.474
			c-15.835-4.461-10.095-15.157-11.099-23.955c-0.329-2.879-0.429-7.513-2.367-8.255c-15.659-5.988-10.8-16.795-10.52-26.803
			c0.101-3.606-0.391-9.103-3.112-10.565c-13.249-7.117-10.014-16.704-8.154-26.654c0.64-3.426,0.371-8.872-2.176-10.473
			c-11.748-7.385-9.263-15.904-6.286-25.665c1.307-4.286-0.05-11.393-3.63-13.978c-8.561-6.183-7.388-12.265-4.621-19.732
			c6.101-16.458,5.872-16.515-9.499-29.349c2.548-6.437,5.816-13.245,7.787-20.301c0.946-3.387,0.848-7.933-1.195-10.766
			c-9.526-13.211-9.631-23.365,0.925-36.039c-12.572-15.586-11.945-23.14,0.947-37.951c2.765-3.176,3.124-8.794,2.195-12.919
			c-1.508-6.699-4.995-13.094-8.077-20.678c17.549-6.929,15.96-18.162,9.644-30.305c-3.171-6.097-1.982-10.75,3.684-16.248
			c4.022-3.902,6.328-11.295,4.907-16.251c-2.766-9.643-3.874-17.674,6.446-24.75c2.285-1.567,3.967-5.59,3.272-7.949
			c-3.467-11.75-6.075-22.125,9.043-31.114c3.986-2.37,0.436-13.14,0.781-20.038c0.16-3.196,0.278-8.503,2.266-9.187
			c13.993-4.818,10.071-14.502,11.261-23.286c0.626-4.623,5.708-8.715,7.744-13.357c2.882-6.569,4.313-13.581,7.323-20.101
			c1.944-4.21,5.581-7.891,8.504-11.787c1.725-2.299,4.521-4.391,5.12-6.86c1.652-6.813,2.402-13.775,3.706-21.909
			c3.986-0.625,8.769-1.374,13.681-2.143c1.498-7.341,0.772-15.194,4.719-20.807c8.826-12.556,19.904-24.041,30.298-35.822
			c1.076-1.219,5.381-1.471,5.395-2.21c0.357-17.779,23.471-21.926,31.047-35.41c1.602-2.851,6.402-4.56,9.937-6.543
			c1.185-0.665,4.208-0.283,4.381-0.82c5.687-17.654,29.926-16.361,41.925-27.938c5.136-4.955,14.83-6.69,22.453-9.887
			L448.68,32.142z"/>
		<path fill="#353535" d="M449.21,31.692c-7.889,1.69-15.919,3.033-23.63,5.163c-8.768,2.421-17.343,5.373-25.822,8.433
			c-4.643,1.675-10.018,3.274-13.117,6.276c-5.755,5.577-9.509,12.527-20.765,11.69c-1.894-0.141-4.374,3.318-6.255,5.323
			c-1.929,2.057-2.922,5.733-5.243,6.352c-15.343,4.092-21.094,15.762-30.665,24.565c-6.074,5.586-16.313,8.12-14.394,18.116
			c0.284,1.479-2.56,4.789-4.139,4.871c-15.961,0.835-16.982,10.288-17.985,20.087c-0.145,1.413-1.79,2.985-3.235,4.004
			c-16.373,11.551-16.399,11.526-19.717,32.399c-4.404,1.012-9.226,2.12-15.158,3.484c-0.926,6.276-1.005,12.904-3.126,19.052
			c-1.412,4.092-6.172,7.313-8.643,11.262c-2.599,4.153-5.47,8.599-6.062,13.111c-1.08,8.236,2.767,17.428-11.57,21.29
			c-2.281,0.614-2.511,8.405-2.326,12.84c0.332,7.932,1.208,15.149-9.524,19.992c-3.17,1.43-4.921,8.067-4.112,11.851
			c2.113,9.885,3.207,18.079-8.673,25.339c-3.787,2.314-1.55,11.239-2.271,17.122c-0.577,4.712,0.644,11.524-2.591,13.708
			c-10.595,7.151-10.358,15.056-6.048,24.021c3.848,8.003,3.397,14.443-5.111,20.88c-3.219,2.435-4.215,9.32-2.625,13.162
			c4.03,9.736,3.406,17.368-4.171,26.309c-3.845,4.537-2.023,13.395-0.287,19.845c2.154,8.003,7.405,15.006-4.028,21.802
			c-2.6,1.545-1.567,10.639,1.326,14.413c6.391,8.338,7.622,15.058-0.38,23.163c-5.646,5.719-6.599,11.641,1.69,18.133
			c3.604,2.823,3.829,11,1.911,15.728c-4.351,10.725-7.351,19.715,3.744,29.7c3.782,3.404-0.302,12.442,0.052,18.874
			c0.272,4.942-0.184,11.551,3.302,14.389c7.118,5.795,8.633,11.502,5.322,18.465c-4.742,9.971-5.083,18.096,5.796,26.592
			c4.017,3.137,0.752,12.435,1.275,18.897c0.305,3.773,0.039,9.681,2.596,10.872c13.16,6.129,11.299,15.015,9.535,24.802
			c-0.718,3.987,0.232,10.896,3.135,12.132c11.634,4.954,11.092,12.76,9.913,21.099c-0.965,6.825-0.462,11.873,8.519,16.075
			c4.136,1.935,4.892,10.11,5.475,15.579c0.732,6.866-1.264,13.669,10.359,16.427c2.854,0.677,3.935,7.777,4.974,12.066
			c2.179,8.996-1.481,21.143,17.478,19.026c1.551,6.739,3.798,12.253,3.847,17.78c0.064,7.099,3.089,11.079,11.272,13.634
			c3.567,1.114,7.376,4.912,8.268,8.038c2.412,8.449,3.05,17.006,16.831,18.812c2.287,0.3,4.367,5.654,5.162,8.903
			c1.66,6.782,3.462,12.911,14.044,12.896c0.981-0.001,2.753,0.487,2.83,0.912c2.98,16.511,25.96,17.888,34.099,30.657
			c1.759,2.759,6.906,4.138,10.678,5.878c1.259,0.581,3.734-0.214,4.578,0.494c33.146,27.792,81.106,30.435,119.378,50.521
			c-25.175-5.522-50.517-10.578-75.469-16.719c-18.522-4.558-36.634-10.312-54.689-16.048c-3.463-1.1-5.501-4.944-8.744-6.907
			c-5.106-3.091-10.607-5.757-16.09-8.393c-1.732-0.832-4.65-0.465-5.816-1.54c-10.574-9.745-19.486-21.124-31.651-29.174
			c-12.477-8.257-19.063-19.549-28.625-28.373c-6.942-6.406-15.184-10.58-16.447-20.04c-0.218-1.632-1.274-4.178-2.653-4.562
			c-16.776-4.67-16.682-17.376-20.269-28.342c-0.543-1.661-0.687-4.534-1.749-4.792c-20.408-4.966-10.557-20.155-16.864-31.928
			c-2.548-0.983-7.144-2.757-11.799-4.553c-5.475-28.207-5.475-28.207-17.743-33.574c0.867-5.288,2.302-10.825,2.479-16.388
			c0.1-3.125-0.714-8.07-3.119-9.148c-12.324-5.522-12.373-13.571-9.732-23.239c2.058-7.534-0.466-13.325-8.335-19.316
			c-4.576-3.484-4.298-13.117-3.019-19.551c1.36-6.844,0.896-11.611-6.259-15.62c-10.167-5.696-2.954-13.35-3.002-20.21
			c-0.035-4.972,1.913-12.148-1.24-14.522c-12.051-9.071-8.859-18.285-3.483-28.121c3.737-6.836,1.375-11.572-4.884-16.991
			c-3.542-3.067-5.253-9.935-3.78-14.133c3.802-10.84,6.075-20.218-4.167-30.122c-3.084-2.983-1.836-12.117,1.558-15.92
			c6.865-7.694,6.793-13.099,0.486-21.02c-3.368-4.23-4.458-13.268-1.228-16.816c8.488-9.325,7.702-17.624,3.735-27.778
			c-1.791-4.583-0.7-12.451,3.049-15.458c7.29-5.846,8.445-11.245,4.682-18.081c-5.368-9.753-6.879-18.678,4.016-26.999
			c2.474-1.889,3.63-6.572,2.825-9.486c-3.188-11.551-6.866-22.04,7.432-31.672c3.635-2.449-1.027-12.929-1.163-19.728
			c-0.06-2.999,0.535-7.778,2.756-8.748c13.539-5.915,10.742-15.455,9.702-24.95c-0.395-3.607-1.09-9.605,1.042-10.606
			c17.268-8.105,12.42-20.291,9.157-33.119c15.232-2.411,17.341-11.194,16.6-21.91c-0.437-6.327-0.24-12.481,10.411-15.165
			c3.457-0.871,3.903-9.283,6.181-14.1c3.006-6.355-2.713-16.927,12.535-17.738c1.377-0.073,2.848-4.294,3.551-6.732
			c3.086-10.695,3.556-22.286,19.407-27.231c2.716-0.847,2.824-6.993,4.53-10.563c1.633-3.417,3.396-9.324,5.76-9.556
			c14.086-1.38,12.661-11.503,17.969-18.22c7.888-9.979,19.34-18.072,29.552-26.745c4.26-3.619,9.274-6.627,13.86-9.993
			c1.927-1.414,3.344-3.428,5.484-4.501c34.61-17.35,67.643-37.163,110.177-40.512c14.659-1.154,28.814-6.674,46.639-11.042
			c-15.493,7.715-27.639,13.764-39.795,19.822C448.68,32.142,449.21,31.692,449.21,31.692z"/>
		<path fill="#353535" d="M171.12,824.736c-0.546-0.132-5.032-1.214-9.757-2.353c-0.731-6.727-1.306-13.23-2.207-19.702
			c-0.355-2.549-0.808-6.913-2.292-7.254c-17.35-3.978-11.745-16.06-13.855-25.42c-0.563-2.497-1.061-6.583-2.787-7.076
			c-15.732-4.491-10.509-15.029-11.137-24.048c-0.22-3.166-1.024-8.139-3.397-9.059c-11.97-4.643-10.925-12.619-9.59-20.982
			c1.289-8.075,0.239-14.768-8.609-20.726c-3.473-2.338-3.247-10.176-2.069-15.077c1.967-8.182,2.001-14.529-5.948-21.255
			c-3.734-3.161-3.792-10.772-2.73-15.979c1.853-9.079,5.457-17.015-6.395-24.339c-3.455-2.135-2.247-11.574-0.338-16.982
			c3.166-8.966,5.049-16.479-6.196-22.672c-2.291-1.261-3.782-5.957-2.864-8.339c4.928-12.79,1.351-24.216-5.026-36.005
			c-2.163-3.999-1.639-11.466,1.588-14.479c7.463-6.97,6.561-12.851,1.43-19.748c-5.897-7.928-7.375-14.706,1.537-23.061
			c3.843-3.603,2.073-12.86-0.049-18.847c-2.945-8.309-6.122-14.999,4.766-21.439c10.608-6.275,2.113-14.306-0.151-21.186
			c-2.345-7.129-4.07-13.327,5.072-17.857c11.049-5.474,5.514-13.296,2.978-19.696c-3.129-7.898-2.74-13.44,4.769-19.906
			c4.028-3.468,5.632-11.078,4.292-16.083c-2.347-8.772-2.154-14.72,6.278-22.064c5.05-4.399,2.566-14.388,4.443-21.694
			c1.131-4.403,4.292-8.429,6.255-12.714c2.4-5.239,5.773-10.467,6.423-15.888c0.91-7.582-1.601-14.769,10.09-19.635
			c4.296-1.788,2.99-11.819,5.538-17.706c1.972-4.557,5.944-8.529,9.074-12.737c1.709-2.298,4.57-4.396,5.082-6.845
			c1.517-7.257,2.125-14.643,3.135-22.335c4.417-1.138,8.87-2.285,14.036-3.615c1.362-6.59,0.536-14.528,4.617-19.944
			c9.632-12.783,21.559-24.392,32.677-36.401c1.462-1.579,5.143-2.65,5.232-4.066c1.093-17.421,19.334-27.702,31.994-34.112
			c14.452-7.318,20.347-21.827,39.339-25.452c15.614-2.98,28.204-15.525,43.701-20.501c16.644-5.345,35.117-6.804,53.154-7.687
			c-16.824,6.055-33.651,12.103-50.465,18.176c-1.38,0.499-3.349,0.883-3.904,1.794c-7.916,12.998-31.431,11.426-36.666,26.835
			c-20.605,1.44-19.791,20.609-33.574,27.731c-1.215,0.628-2.782,2.161-2.6,3.054c2.63,12.917-9.096,14.615-19.551,17.375
			c-0.987,0.261-2.37,0.628-2.709,1.261c-3.747,6.992-5.743,15.122-11.392,20.78c-5.604,5.613-18.768,4.627-17.964,16.775
			c0.487,7.36,1.795,17.592-13.454,20.076c-2.747,0.448-4.084,9.733-4.79,15.055c-0.902,6.801,1.309,14.188-11.582,15.28
			c-2.293,0.194-4.969,6.648-5.429,10.382c-1.111,9.011,3.433,18.833-12.229,23.954c-3.39,1.108-1.523,13.44-1.803,20.609
			c-0.08,2.056,0.801,4.138,1.422,7.056c-19.046,3.573-16.857,14.622-14.143,26.042c0.649,2.73,1.312,7.442-0.264,8.241
			c-14.698,7.452-13.404,18.113-10.144,29.572c0.548,1.925,0.289,5.175-1.195,6.145c-14.889,9.726-11.531,21.792-7.651,34.336
			c0.815,2.637-0.384,7.459-2.687,8.698c-12.111,6.516-10.741,14.378-5.35,23.404c3.957,6.624,2.687,12.029-2.801,18.744
			c-4.048,4.952-5.502,15.353-1.832,19.756c7.276,8.726,2.39,14.397-1.187,21.67c-2.047,4.162-4.065,11.417-1.542,13.477
			c9.368,7.65,7.742,15.086,2.878,23.228c-4.507,7.544-4.441,13.731,1.541,21.655c3.751,4.969,0.123,13.608,0.284,20.593
			c0.14,6.065-1.793,14.023,2.033,17.788c8.338,8.204,7.239,15.216,2.331,23.545c-3.997,6.784-4.405,13.374,4.646,17.872
			c10.315,5.126,5.506,12.318,3.134,18.407c-3.172,8.143-2.608,14.326,4.136,21.611c4.348,4.696,3.976,12.506,5.209,18.987
			c0.84,4.417-1.148,11.713,1.472,12.971c14.698,7.052,9.631,17.522,9.298,27.495c-0.114,3.42,0.882,9.329,3.064,9.933
			c13.135,3.639,11.922,11.012,10.14,19.728c-1.453,7.107-2.54,14.152,9.162,18.305c3.881,1.377,4.85,10.117,5.435,15.615
			c0.737,6.923-1.144,13.658,10.734,16.213c3.097,0.666,4.668,8.219,5.735,12.8c1.669,7.16-2.242,15.784,12.227,18.154
			c3.414,0.559,5.999,10.172,6.527,15.777c0.725,7.707,2.482,13.611,12.822,15.551c2.443,0.458,6.67,2.259,6.545,3.07
			c-2.716,17.584,22.385,22.052,25.221,36.847c0.082,0.43,0.07,0.998,0.391,1.253c11.792,9.341,23.59,18.678,35.491,27.924
			c1.07,0.832,3.847,0.793,4.141,1.586c5.555,14.978,28.126,14.559,36.24,27.359c1.32,2.083,5.76,3.157,9.023,3.959
			c2.95,0.725,7.976-0.587,9.157,0.756c13.357,15.194,36.542,11.26,53.17,20.708c-13.092-2.14-26.4-3.636-39.225-6.572
			c-19.162-4.386-38.185-9.339-56.808-15.069c-4.674-1.438-7.868-9.953-11.286-9.758c-20.488,1.166-21.577-21.698-40.812-21.595
			c-1.838,0.01-4.253-4.611-5.461-7.363c-2.758-6.287-4.948-12.711-15.547-11.961c-1,0.071-2.586-0.081-3.001-0.61
			c-8.889-11.338-17.556-22.795-26.477-34.115c-3.964-5.03-9.088-9.508-12.455-14.773
			C183.059,846.852,178.229,837.371,171.12,824.736z"/>
		<path fill="#353535" d="M449.474,492.29c-3.461-76.217,21.169-150.673,55.527-222.85c17.729-37.243,43.724-71.411,84.36-96.086
			c55.329-33.597,119.501-27.052,166.546,9.003c57.582,44.131,87.237,100.547,105.251,161.879
			c13.677,46.565,22.937,93.922,22.667,141.965c-0.46,81.994-15.141,161.918-56.567,237.35
			c-18.082,32.925-42.634,62.012-76.097,85.633c-56.002,39.531-126.734,34.799-177.891-5.687
			c-58.751-46.496-86.445-105.915-104.417-169.256C455.873,588.491,447.15,542.15,449.474,492.29z M452.004,493.886
			c1.342,58.797,8.951,112.714,29.608,164.573c16.842,42.282,38.468,83.391,81.497,112.721
			c42.708,29.112,85.978,36.435,136.471,10.919c28.195-14.248,48.12-35.333,64.347-58.368
			c49.655-70.489,64.198-148.36,65.243-228.215c0.61-46.613-7.279-93.001-23.025-137.844
			c-17.276-49.199-41.063-96.036-89.898-130.688c-33.403-23.702-70.77-34.661-113.559-19.698
			c-38.761,13.554-66.28,37.667-86.673,67.761C469.002,344.426,454.575,420.087,452.004,493.886z"/>
	</g>
</g>
<g id="Layer_3">
	<g>
		<path fill="#353535" d="M762.665,137.369c84.675,4.018,139.676,50.701,179.281,119.981c46.911,82.06,59.09,171.723,51.549,264.423
			c-5.99,73.644-26.734,142.98-70.93,203.404c-35.661,48.755-81.147,82.658-143.706,88.211
			c-66.527,5.905-133.183,10.695-199.526,18.229c-52.867,6.004-95.937-10.93-132.46-47.891
			c-39.662-40.138-62.486-89.661-77.227-143.06c-3.866-14.005-11.782-16.695-23.592-18.882c-13.073-2.421-11.836,8.502-15.343,14.58
			c-15.295,26.509-32.15,51.492-66.353,53.793c-50.381,3.389-100.84,5.648-151.272,8.248c-12.964,0.668-24.518-3.378-34.816-11.372
			c-14.168-10.997-22.558-26.039-30.459-41.643c-7.08-13.983-4.831-25.581,5.687-37.047c16.142-17.597,32.174-35.388,46.916-54.147
			c14.842-18.886,11.156-42.48,6.807-62.65c-2.489-11.541-25.156-2.652-48.063-5.475S21.75,477.25,21.75,477.25
			s1.836-83.43,5.201-99.353c7.438-35.189,15.666-69.911,38.03-99.257c13.446-17.644,30.955-25.837,53.633-24.355
			c47.082,3.077,94.205,5.775,141.353,7.471c19.34,0.696,34.501,8.388,47.545,21.418c10.032,10.022,17.163,22.183,24.085,34.553
			c3.06,5.469,1.409,16.69,13.825,13.734c10.523-2.506,20.037-3.606,23.556-17.52c4.889-19.331,11.757-38.413,19.981-56.604
			C416.755,195.855,487.5,128,523.189,122.894C534.78,121.236,708.483,134.799,762.665,137.369z M42.436,462.131
			c18.605-27.107,35.716-49.343,49.689-73.401c8.449-14.547,12.267-7.482,17.536,0.42c2.657,3.984,4.526,8.708,5.814,13.357
			c11.96,43.176,18.292,87.074,15.023,131.94c-0.861,11.823-3.194,23.352-11.904,33c-15.986,17.707-31.137,36.17-46.613,54.336
			c-2.692,3.159-6.766,5.575-4.037,11.07c6.791,13.674,13.373,27.615,26.901,35.982c9.298,5.751,17.934,6.435,28.115-1.469
			c24.633-19.123,33.056-45.97,37.796-74.392c3.501-20.994,7.067-25.676,24.117-23.582c62.408,7.663,124.774,15.77,187.313,22.179
			c14.672,1.504,19.871,6.93,23.22,20.447c12.791,51.628,33.128,99.786,69.429,139.913c40.439,44.702,80.626,53.6,123.284,26.213
			c12.47-8.006,24.115-17.418,34.059-28.746c28.857-32.875,47.06-71.436,59.751-112.739c29.852-97.15,30.956-195.171,7.607-293.756
			c-7.459-31.492-17.823-61.936-33.259-90.495c-18.062-33.417-40.445-62.959-74.152-82.301
			c-15.162-8.701-32.152-14.346-48.843-11.936c-27.186,3.927-48.605,20.648-66.89,40.376
			c-38.739,41.798-58.914,93.09-72.526,147.319c-2.201,8.77-5.493,12.467-14.625,13.503c-66.872,7.583-133.71,15.477-200.484,23.876
			c-9.807,1.234-11.93-2.844-13.399-10.805c-3.55-19.238-8.443-38.171-17.277-55.764c-8.74-17.404-16.25-38.196-39.874-37.827
			c-23.314,0.364-31.603,20.853-39.584,38.511C48.568,361.729,44.322,409.202,42.436,462.131z M889.592,681.742
			c8.331-0.684,16.156-3.583,22.054-1.362c14.101,5.311,18.569-3.883,23.354-12.913c18.05-34.06,29.484-70.579,37.216-108.09
			c10.401-50.463,10.681-101.558,3.063-152.349c-9.659-64.406-30.383-124.848-75.254-173.81
			c-19.96-21.78-40.545-46.436-76.462-36.856c7.989,15.543,26.257,6.1,38.506,13.109c-5.562,7.291-12.737,1.945-16.678,5.65
			c6.471,16.498,23.755,11.334,36.048,17.284c-5.117,7.213-12.173,2.062-15.659,4.547c5.269,26.87,32.146,15.819,49.496,26.078
			c-11.059,5.512-20.621-0.661-28.965,3.93c8.79,22.557,8.813,22.348,29.107,24.552c5.878,0.638,16.702-2.489,15.943,5.719
			c-0.707,7.652-10.714,2.338-16.447,2.044c-9.582-0.491-11.569,1.065-9.071,11.749c4.287,18.337,16.912,18.053,30.71,18.398
			c4.693,0.117,11.565,0.463,11.452,6.555c-0.145,7.83-7.38,3.049-11.362,3.891c-3.076,0.65-6.536,0.133-9.713-0.466
			c-7.422-1.401-9.305,0.182-7.65,8.406c2.999,14.901,6.573,26.933,26.058,24.588c5.081-0.611,15.261-2.595,15.195,7.339
			c-0.069,10.475-9.747,6.911-15.076,6.341c-15.304-1.637-16.446,4.733-14.071,17.841c2.114,11.668,6.791,15.996,18.101,14.566
			c3.725-0.471,7.588,0.186,11.39,0.271c4.302,0.096,7.353,1.537,7.623,6.449c0.302,5.497-3.379,5.999-7.436,6.122
			c-4.879,0.147-9.789,0.004-14.626,0.533c-4.513,0.494-9.24-0.275-10.297,7.187c-3.124,22.048,1.033,27.768,22.833,28.475
			c1.629,0.053,3.26,0.013,4.889,0.066c4.088,0.131,7.875,0.835,7.398,6.205c-0.396,4.463-3.22,6.692-7.605,6.816
			c-4.886,0.138-9.79-0.099-14.661,0.215c-4.508,0.29-9.626-1.542-11.817,5.418c-6.034,19.171,0.821,29.719,20.249,30.545
			c4.353,0.185,10.889-2.292,11.457,5.311c0.616,8.255-5.957,7.388-11.329,7.743c-24.408,1.614-24.147,1.658-26.712,24.591
			c-0.884,7.906,1.078,10.638,9.386,10.424c7.365-0.19,20.463-8.432,20.816,4.555c0.321,11.797-13.991,6.921-21.475,6.69
			c-19.825-0.612-15.952,15.871-17.474,25.36c-1.959,12.207,10.118,4.045,15.432,6.424c0.902,0.404,2.155-0.044,3.232,0.052
			c3.588,0.319,8.394-0.83,8.76,4.643c0.326,4.869-2.44,8.477-7.511,8.906c-5.938,0.502-11.951,0.57-17.908,0.304
			c-14.984-0.671-14.651,12.404-15.311,20.414c-0.722,8.753,9.015,3.408,14.035,4.605c2.048,0.488,4.346-0.186,6.491,0.039
			c2.51,0.264,5.797-0.251,6.206,3.537c0.325,3.003-1.302,5.567-3.959,6.366c-3.569,1.073-7.442,1.756-11.153,1.634
			C904.431,657.864,893.823,664.431,889.592,681.742z M792.78,446.089c0.59,19.86,0.491,20.657,9.23,21.742
			c19.028,2.363,35.384,9.862,48.958,23.268c6.251,6.174,10.958,5.71,17.481-0.457c9.906-9.365,21.768-17.633,35.364-18.867
			c18.978-1.722,22.027-11.099,20.571-27.852c-1.038-11.947-5.604-13.315-15.256-11.392c-15.732,3.134-27.713,12.273-37.695,23.979
			c-7.087,8.312-12.052,9.837-20.011,0.511c-10.759-12.607-25.259-20.262-41.314-24.631
			C792.24,427.526,792.23,427.563,792.78,446.089z M792.987,502.115c-2.847,11.105,0.231,18.587,16.456,19.526
			c14.217,0.823,26.896,8.659,37.079,18.831c6.432,6.425,11.287,6.412,17.797,0.467c11.045-10.086,24.442-17.888,38.843-19.308
			c20.446-2.016,22.066-13.76,21.407-29.708c-0.357-8.625-2.312-11.384-11.465-9.42c-18.51,3.972-32.145,15.164-44.899,27.923
			c-5.984,5.986-10.214,7.614-16.38-0.607c-9.715-12.953-23.653-20.385-39.095-25.039
			C793.784,479.071,793.453,479.257,792.987,502.115z M920.756,408.938c-3.745-30.233-4.455-29.377-30.62-20.284
			c-9.864,3.428-18.108,10.311-24.028,18.868c-6.185,8.94-10.607,7.744-17.43,0.546c-13.866-14.627-31.983-22.04-51.132-27.006
			c-3.411-0.885-7.514-2.826-10.457,1.096c-5.143,6.855,4.963,32.532,13.507,34.226c18.934,3.754,36.543,10.366,50.908,23.746
			c5.083,4.734,8.84,6.331,14.798,0.386c12.242-12.214,27.554-19.198,44.738-21.296C918.33,418.331,922.353,415.897,920.756,408.938
			z M920.465,540.701c2.995-10.17-1.147-10.069-8.034-8.651c-18.141,3.734-33.428,12.696-46.61,25.131
			c-8.215,7.75-14.278,12.73-22.243-0.657c-5.011-8.422-14.75-12.538-23.729-16.505c-25.658-11.334-30.434-8.45-32.476,18.636
			c-0.489,6.49,0.47,10.178,8.079,10.548c16.319,0.792,30.404,7.692,42.596,18.157c5.988,5.14,10.477,5.112,17.056,0.593
			c12.965-8.905,26.786-17.904,42.597-19.177C917.604,567.172,920.803,555.085,920.465,540.701z M854.48,396.304
			c1.788-1.322,4.169-2.597,5.925-4.461c11.392-12.085,26-16.883,41.868-19.406c5.247-0.834,14.184-0.908,9.123-10.157
			c-4.407-8.054,2.452-24.392-15.718-22.91c-16.049,1.309-28.802,8.977-38.715,21.273c-5.194,6.442-9.004,6.905-15.609,1.081
			c-15.27-13.465-33.536-21.675-53.368-26.17c-3.847-0.872-8.573-3.549-11.53,1.636c-2.433,4.265,6.591,29.043,11.185,29.833
			c23.345,4.018,44.973,11.728,63.199,27.44C851.628,395.143,852.742,395.443,854.48,396.304z M791.16,582.643
			c-14.039,0.028-8.646,14.272-12.278,22.273c-4.084,8.996,2.174,9.255,8.733,10.099c13.563,1.745,26.515,5.719,37.048,14.97
			c6.52,5.726,12.24,4.426,18.945,0.2c13.825-8.714,28.891-15.968,44.899-17.899c14.927-1.8,19.346-9.437,22.59-22.316
			c3.013-11.962-1.905-11.852-10.235-9.786c-17.115,4.245-32.216,12.534-45.612,23.825c-7.988,6.733-13.983,9.43-21.98-1.264
			C823.766,590.035,808.507,586.059,791.16,582.643z M759.882,292.23c6.9,11.371,3.107,27.236,17.811,29.979
			c21.835,4.074,41.104,13.05,59.623,24.558c3.488,2.167,7.111,5.356,11.435,0.681c11.764-12.716,27.488-16.741,43.786-18.884
			c6.177-0.812,8.315-1.962,6.205-8.988c-6.199-20.643-12.098-24.192-32.664-17.611c-7.336,2.348-14.87,5.543-19.108,11.752
			c-7.847,11.497-14.211,7.745-23.253,1.277C805.503,301.964,784.676,295.072,759.882,292.23z M779.503,628.005
			c-13.143,0.461-11.133,13.527-13.68,21.408c-3.451,10.68,6.948,6.43,11.501,7.116c10.928,1.648,21.646,4.212,30.185,11.117
			c7.285,5.891,13.048,5.096,20.458,0.78c14.655-8.536,30.758-14.33,47.365-16.565c12.94-1.742,18.489-8.482,22.413-19.46
			c2.807-7.854,3.118-10.938-7.049-8.881c-18.578,3.76-34.677,12.316-49.805,23.104c-8.173,5.828-14.342,6.906-22.036-2.089
			C809.295,633.357,794.979,630.256,779.503,628.005z M744.762,258.35c7.887,6.924,3.004,22.588,17.002,23.888
			c22.294,2.07,41.353,12.513,60.851,22.005c4.231,2.06,8.026,5.417,13.066,0.631c11.217-10.651,25.628-13.525,40.339-15.403
			c2.913-0.372,6.893,0.669,7.282-4.205c0.641-8.042-14.022-22.546-22.136-21.428c-11.914,1.642-24.198,3.715-32.446,13.286
			c-5.98,6.939-10.384,6.669-17.517,1.944C791.493,266.007,769.427,259.345,744.762,258.35z M723.766,225.802
			c7.986,10.315,9.447,20.427,21.165,21.475c21.406,1.913,40.462,11.378,59.87,19.623c3.79,1.61,7.871,5.907,11.87,2.237
			c13.228-12.139,30.245-12.222,46.886-14.345c-12.113-23.829-31.211-27.905-53.126-10.855c-6.893,5.363-11.394,5.39-18.417,1.774
			C771.758,235.283,750.42,228.179,723.766,225.802z M708.646,204.338c3.283,10.768,10.272,12.839,17.839,14.441
			c21.052,4.459,42.48,7.577,62.093,17.302c2.224,1.103,6.007,2.328,7.426,1.278c13.012-9.625,28.618-10.022,44.786-11.399
			c-13.555-16.769-33.928-20.607-54.198-9.306c-7.353,4.1-12.065,3.449-19.147,0.913
			C748.975,210.953,730.61,203.006,708.646,204.338z M750.695,447.335c0.092,9.153-3.813,21.264,15.555,20.498
			c13.923-0.551,14.738-6.612,13.802-17.02c-1.011-11.238,3.053-24.094-17.084-23.173
			C747.715,428.337,749.96,436.521,750.695,447.335z M751.693,503.955c1.058,3.441-7.533,15.243,10.555,16.166
			c19.429,0.991,17.437-10.419,17.762-22.415c0.255-9.418,1.753-17.152-13.022-17.532
			C750.627,479.753,749.273,487.54,751.693,503.955z M758.252,377.377c-13.85-0.322-14.05-0.196-14.175,8.948
			c-0.301,22.018,3.698,28.726,17.952,28.646c6.015-0.034,14.858,4.15,14.417-8.635C775.648,383.14,772.659,377.711,758.252,377.377
			z M883.163,661.517c-23.361,3.276-42.164,12.128-59.96,23.444c-2.395,1.523-6.827,2.6-4.948,6.914
			c1.656,3.802,5.016,2.75,8.328,1.84c9.838-2.704,19.716-6.98,29.656-7.204C872.547,686.143,878.66,676.73,883.163,661.517z
			 M756.279,569.03c16.668,0.203,19.534-4.424,20.191-27.039c0.325-11.184-7.002-8.729-13.004-8.841
			c-15.594-0.289-17.765,3.689-18.495,27.798C744.658,571.272,751.454,568.528,756.279,569.03z M746.263,331.433
			c-12.687-2.837-14.415,3.88-10.577,15.259c1.365,4.048,2.025,8.329,3.127,12.472c2.36,8.871,9.876,6.816,15.908,6.959
			c4.416,0.105,10.073,2.376,12.816-3.543C772.434,352.01,759.436,331.801,746.263,331.433z M747.295,614.866
			c14.648-0.009,19.922-7.253,20.945-25.885c0.585-10.649-6.935-6.04-10.98-6.188c-14.709-0.538-21.538,8.467-21.181,26.331
			C736.279,619.117,743.861,613.112,747.295,614.866z M745.93,320.918c11.309,3.267,11.822-2.985,7.512-13.026
			c-1.702-3.965-2.51-8.388-4.627-12.087c-5.532-9.67-15.426-5.238-23.51-6.53c-2.516-0.402-5.237-0.142-5.854,3.665
			C717.607,304.328,731.601,320.54,745.93,320.918z M815.431,201.178c-31.029-16.674-62.26,7.761-90.511-7.282
			C752.995,211.266,782.539,209.192,815.431,201.178z M723.25,656.072c25.478,1.652,25.823,1.147,31.204-18.992
			c1.689-6.319,1.382-8.414-5.86-8.88C731.097,627.075,729.566,628.338,723.25,656.072z M704.166,254
			c6.229,24.094,8.651,26.086,28.437,26.478c6.26,0.124,9.193,0.38,6.323-7.569C732.248,254.412,728.73,252.096,704.166,254z
			 M721.072,244.286c-10.094-22.567-13.746-24.439-34.529-18.515C690.838,244.022,704.453,245.655,721.072,244.286z M665.808,198.93
			c7.003,16.103,20.04,16.493,34.809,16.595C693.133,200.108,681.217,197.067,665.808,198.93z"/>
		<path fill="#6F6F70" d="M889.592,681.742c4.231-17.311,14.839-23.878,30.817-23.356c3.711,0.121,7.583-0.561,11.153-1.634
			c2.657-0.799,4.284-3.363,3.959-6.366c-0.41-3.788-3.696-3.274-6.206-3.537c-2.145-0.225-4.443,0.449-6.491-0.039
			c-5.02-1.197-14.757,4.148-14.035-4.605c0.66-8.01,0.327-21.084,15.311-20.414c5.957,0.267,11.97,0.199,17.908-0.304
			c5.071-0.429,7.837-4.037,7.511-8.906c-0.366-5.473-5.172-4.323-8.76-4.643c-1.077-0.096-2.33,0.352-3.232-0.052
			c-5.314-2.379-17.39,5.783-15.432-6.424c1.523-9.489-2.351-25.972,17.474-25.36c7.484,0.231,21.796,5.107,21.475-6.69
			c-0.353-12.987-13.451-4.744-20.816-4.555c-8.308,0.214-10.27-2.519-9.386-10.424c2.564-22.933,2.303-22.978,26.712-24.591
			c5.372-0.355,11.945,0.511,11.329-7.743c-0.568-7.603-7.104-5.126-11.457-5.311c-19.428-0.826-26.283-11.375-20.249-30.545
			c2.191-6.961,7.308-5.128,11.817-5.418c4.871-0.314,9.775-0.076,14.661-0.215c4.385-0.124,7.209-2.353,7.605-6.816
			c0.477-5.37-3.31-6.074-7.398-6.205c-1.629-0.052-3.26-0.013-4.889-0.066c-21.801-0.708-25.958-6.428-22.833-28.475
			c1.057-7.462,5.784-6.693,10.297-7.187c4.837-0.529,9.748-0.386,14.626-0.533c4.057-0.122,7.738-0.625,7.436-6.122
			c-0.27-4.912-3.321-6.353-7.623-6.449c-3.801-0.085-7.664-0.742-11.39-0.271c-11.31,1.43-15.987-2.898-18.101-14.566
			c-2.375-13.108-1.233-19.478,14.071-17.841c5.329,0.57,15.007,4.134,15.076-6.341c0.066-9.934-10.114-7.951-15.195-7.339
			c-19.486,2.345-23.059-9.687-26.058-24.588c-1.655-8.224,0.228-9.807,7.65-8.406c3.176,0.6,6.636,1.117,9.713,0.466
			c3.983-0.842,11.217,3.939,11.362-3.891c0.113-6.092-6.759-6.438-11.452-6.555c-13.798-0.345-26.423-0.062-30.71-18.398
			c-2.498-10.685-0.511-12.24,9.071-11.749c5.734,0.294,15.74,5.608,16.447-2.044c0.759-8.208-10.065-5.08-15.943-5.719
			c-20.294-2.204-20.317-1.995-29.107-24.552c8.343-4.591,17.905,1.582,28.965-3.93c-17.35-10.259-44.227,0.792-49.496-26.078
			c3.485-2.486,10.542,2.666,15.659-4.547c-12.294-5.95-29.577-0.785-36.048-17.284c3.942-3.706,11.117,1.641,16.678-5.65
			c-12.248-7.008-30.516,2.435-38.506-13.109c35.918-9.58,56.502,15.076,76.462,36.856c44.871,48.963,65.595,109.404,75.254,173.81
			c7.618,50.791,7.339,101.887-3.063,152.349c-7.732,37.511-19.166,74.031-37.216,108.09c-4.785,9.03-9.253,18.223-23.354,12.913
			C905.749,678.159,897.924,681.058,889.592,681.742z"/>
		<path fill="#6F6F70" d="M792.78,446.089c-0.55-18.526-0.54-18.563,17.329-13.7c16.055,4.369,30.555,12.025,41.314,24.631
			c7.959,9.326,12.923,7.801,20.011-0.511c9.982-11.706,21.962-20.844,37.695-23.979c9.652-1.923,14.218-0.555,15.256,11.392
			c1.456,16.753-1.593,26.131-20.571,27.852c-13.597,1.234-25.458,9.502-35.364,18.867c-6.523,6.166-11.229,6.631-17.481,0.457
			c-13.574-13.405-29.93-20.905-48.958-23.268C793.271,466.746,793.37,465.949,792.78,446.089z"/>
		<path fill="#6F6F70" d="M792.987,502.115c0.467-22.858,0.798-23.044,19.743-17.334c15.443,4.654,29.38,12.086,39.095,25.039
			c6.166,8.221,10.396,6.593,16.38,0.607c12.754-12.759,26.389-23.951,44.899-27.923c9.154-1.964,11.109,0.795,11.465,9.42
			c0.659,15.948-0.96,27.692-21.407,29.708c-14.401,1.42-27.798,9.221-38.843,19.308c-6.51,5.945-11.365,5.958-17.797-0.467
			c-10.183-10.173-22.862-18.008-37.079-18.831C793.218,520.702,790.14,513.22,792.987,502.115z"/>
		<path fill="#6F6F70" d="M920.756,408.938c1.596,6.959-2.427,9.392-9.717,10.282c-17.184,2.097-32.495,9.082-44.738,21.296
			c-5.959,5.945-9.715,4.349-14.798-0.386c-14.366-13.38-31.974-19.992-50.908-23.746c-8.544-1.694-18.65-27.371-13.507-34.226
			c2.942-3.922,7.046-1.98,10.457-1.096c19.15,4.966,37.266,12.379,51.132,27.006c6.823,7.198,11.245,8.394,17.43-0.546
			c5.92-8.557,14.164-15.44,24.028-18.868C916.302,379.562,917.011,378.705,920.756,408.938z"/>
		<path fill="#6F6F70" d="M920.465,540.701c0.338,14.384-2.86,26.471-22.763,28.074c-15.812,1.274-29.632,10.272-42.597,19.177
			c-6.579,4.519-11.069,4.547-17.056-0.593c-12.192-10.465-26.277-17.365-42.596-18.157c-7.609-0.369-8.568-4.058-8.079-10.548
			c2.042-27.086,6.818-29.97,32.476-18.636c8.979,3.966,18.718,8.083,23.729,16.505c7.965,13.388,14.028,8.408,22.243,0.657
			c13.182-12.435,28.469-21.397,46.61-25.131C919.318,530.632,923.46,530.531,920.465,540.701z"/>
		<path fill="#6F6F70" d="M854.48,396.304c-1.737-0.861-2.852-1.162-3.639-1.841c-18.226-15.712-39.854-23.422-63.199-27.44
			c-4.594-0.791-13.618-25.568-11.185-29.833c2.958-5.185,7.683-2.508,11.53-1.636c19.831,4.496,38.098,12.706,53.368,26.17
			c6.605,5.824,10.415,5.361,15.609-1.081c9.913-12.295,22.666-19.963,38.715-21.273c18.17-1.482,11.311,14.856,15.718,22.91
			c5.061,9.249-3.876,9.323-9.123,10.157c-15.868,2.523-30.475,7.32-41.868,19.406C858.648,393.707,856.267,394.982,854.48,396.304z
			"/>
		<path fill="#6F6F70" d="M791.16,582.643c17.347,3.416,32.605,7.391,42.111,20.102c7.998,10.694,13.992,7.997,21.98,1.264
			c13.396-11.29,28.497-19.579,45.612-23.825c8.33-2.066,13.248-2.176,10.235,9.786c-3.244,12.879-7.663,20.516-22.59,22.316
			c-16.009,1.931-31.075,9.185-44.899,17.899c-6.706,4.227-12.426,5.527-18.945-0.2c-10.534-9.252-23.486-13.225-37.048-14.97
			c-6.56-0.844-12.818-1.102-8.733-10.099C782.515,596.916,777.121,582.671,791.16,582.643z"/>
		<path fill="#6F6F70" d="M759.882,292.23c24.793,2.842,45.621,9.735,63.834,22.765c9.042,6.469,15.406,10.22,23.253-1.277
			c4.238-6.209,11.771-9.404,19.108-11.752c20.566-6.581,26.465-3.032,32.664,17.611c2.11,7.026-0.027,8.176-6.205,8.988
			c-16.298,2.143-32.022,6.168-43.786,18.884c-4.324,4.674-7.948,1.486-11.435-0.681c-18.518-11.508-37.788-20.485-59.623-24.558
			C762.989,319.466,766.783,303.601,759.882,292.23z"/>
		<path fill="#6F6F70" d="M779.503,628.005c15.476,2.252,29.792,5.352,39.354,16.53c7.694,8.995,13.863,7.917,22.036,2.089
			c15.128-10.788,31.226-19.344,49.805-23.104c10.167-2.057,9.856,1.027,7.049,8.881c-3.924,10.978-9.472,17.719-22.413,19.46
			c-16.608,2.235-32.71,8.029-47.365,16.565c-7.41,4.316-13.173,5.111-20.458-0.78c-8.539-6.905-19.257-9.47-30.185-11.117
			c-4.553-0.686-14.952,3.564-11.501-7.116C768.37,641.532,766.36,628.466,779.503,628.005z"/>
		<path fill="#6F6F70" d="M744.762,258.35c24.665,0.995,46.731,7.658,66.441,20.717c7.132,4.726,11.536,4.995,17.517-1.944
			c8.249-9.571,20.532-11.644,32.446-13.286c8.114-1.118,22.777,13.386,22.136,21.428c-0.389,4.874-4.369,3.833-7.282,4.205
			c-14.711,1.878-29.123,4.753-40.339,15.403c-5.04,4.786-8.835,1.429-13.066-0.631c-19.498-9.492-38.557-19.935-60.851-22.005
			C747.766,280.938,752.649,265.274,744.762,258.35z"/>
		<path fill="#6F6F70" d="M723.766,225.802c26.654,2.377,47.992,9.481,68.247,19.909c7.023,3.616,11.524,3.588,18.417-1.774
			c21.915-17.05,41.012-12.974,53.126,10.855c-16.641,2.123-33.658,2.206-46.886,14.345c-3.999,3.67-8.08-0.627-11.87-2.237
			c-19.407-8.245-38.463-17.71-59.87-19.623C733.214,246.229,731.752,236.117,723.766,225.802z"/>
		<path fill="#6F6F70" d="M708.646,204.338c21.964-1.333,40.329,6.615,58.8,13.229c7.083,2.537,11.794,3.187,19.147-0.913
			c20.269-11.301,40.642-7.463,54.198,9.306c-16.168,1.376-31.773,1.774-44.786,11.399c-1.419,1.05-5.202-0.175-7.426-1.278
			c-19.613-9.725-41.041-12.843-62.093-17.302C718.919,217.177,711.93,215.106,708.646,204.338z"/>
		<path fill="#6F6F70" d="M750.695,447.335c-0.735-10.814-2.98-18.998,12.273-19.696c20.136-0.921,16.073,11.935,17.084,23.173
			c0.936,10.409,0.121,16.469-13.802,17.02C746.882,468.6,750.787,456.488,750.695,447.335z"/>
		<path fill="#6F6F70" d="M751.693,503.955c-2.421-16.416-1.066-24.203,15.295-23.781c14.774,0.38,13.277,8.114,13.022,17.532
			c-0.325,11.996,1.667,23.406-17.762,22.415C744.16,519.198,752.752,507.396,751.693,503.955z"/>
		<path fill="#6F6F70" d="M758.252,377.377c14.407,0.335,17.396,5.763,18.195,28.959c0.441,12.785-8.402,8.601-14.417,8.635
			c-14.254,0.079-18.253-6.628-17.952-28.646C744.202,377.181,744.402,377.055,758.252,377.377z"/>
		<path fill="#6F6F70" d="M883.163,661.517c-4.503,15.213-10.616,24.626-26.924,24.994c-9.94,0.224-19.818,4.5-29.656,7.204
			c-3.311,0.91-6.671,1.962-8.328-1.84c-1.879-4.314,2.552-5.391,4.948-6.914C840.999,673.645,859.802,664.793,883.163,661.517z"/>
		<path fill="#6F6F70" d="M756.279,569.03c-4.825-0.502-11.621,2.242-11.308-8.081c0.729-24.108,2.901-28.087,18.495-27.798
			c6.002,0.111,13.329-2.343,13.004,8.841C775.813,564.606,772.946,569.233,756.279,569.03z"/>
		<path fill="#6F6F70" d="M746.263,331.433c13.173,0.368,26.171,20.577,21.273,31.148c-2.742,5.919-8.399,3.648-12.816,3.543
			c-6.032-0.143-13.548,1.912-15.908-6.959c-1.102-4.143-1.762-8.424-3.127-12.472C731.848,335.313,733.576,328.596,746.263,331.433
			z"/>
		<path fill="#6F6F70" d="M747.295,614.866c-3.434-1.754-11.016,4.251-11.216-5.742c-0.357-17.864,6.472-26.869,21.181-26.331
			c4.046,0.148,11.565-4.461,10.98,6.188C767.217,607.613,761.943,614.857,747.295,614.866z"/>
		<path fill="#6F6F70" d="M745.93,320.918c-14.329-0.378-28.323-16.589-26.478-27.979c0.617-3.807,3.338-4.067,5.854-3.665
			c8.084,1.292,17.978-3.14,23.51,6.53c2.116,3.699,2.925,8.122,4.627,12.087C757.752,317.933,757.239,324.185,745.93,320.918z"/>
		<path fill="#6F6F70" d="M815.431,201.178c-32.892,8.014-62.435,10.088-90.511-7.282
			C753.171,208.939,784.402,184.504,815.431,201.178z"/>
		<path fill="#6F6F70" d="M723.25,656.072c6.316-27.734,7.847-28.997,25.345-27.871c7.242,0.466,7.548,2.561,5.86,8.88
			C749.073,657.22,748.728,657.724,723.25,656.072z"/>
		<path fill="#6F6F70" d="M704.166,254c24.564-1.904,28.082,0.412,34.76,18.909c2.87,7.949-0.063,7.693-6.323,7.569
			C712.817,280.086,710.395,278.093,704.166,254z"/>
		<path fill="#6F6F70" d="M721.072,244.286c-16.619,1.369-30.234-0.264-34.536-18.502
			C707.326,219.847,710.978,221.718,721.072,244.286z"/>
		<path fill="#6F6F70" d="M665.808,198.93c15.409-1.864,27.325,1.177,34.809,16.595C685.849,215.423,672.811,215.033,665.808,198.93
			z"/>
		<path fill="#353535" d="M562.391,317.002c12.792-6.027,16.294,6.632,20.873,20.762c14.087,43.469,29.078,86.649,44.114,129.803
			c2.123,6.094,1.952,11.179-0.097,17.115c-16.092,46.634-32.192,93.271-47.546,140.15c-2.814,8.593-6.473,10.831-14.95,9.532
			c-24.67-3.781-49.381-7.496-74.201-9.999c-9.571-0.965-11.062-6.741-13.009-13.612c-10.197-35.993-18.541-72.673-31.442-107.673
			c-7.234-19.626-5.441-35.907,0.534-54.578c11.234-35.101,20.665-70.792,30.272-106.393c2.599-9.632,6.903-13.924,17.428-14.94
			C515.031,325.176,535.5,321.162,562.391,317.002z"/>
	</g>
</g>
</svg>
